<svg xmlns="http://www.w3.org/2000/svg" viewBox="0 0 100 100">
  <rect width="100" height="100" fill="#1B3A6B" rx="12"/>
  <path d="M 15,52 Q 50,34 85,52 L 85,80 L 50,96 L 15,80 Z" fill="none" stroke="#C9A84C" stroke-width="3.5" stroke-linejoin="miter"/>
  <text x="50" y="77" font-family="'Arial Black',Arial,sans-serif" font-weight="900" font-size="34" fill="#C9A84C" text-anchor="middle">P</text>
  <polygon fill="#C9A84C" points="29,16 30.5,20.5 35.2,20.6 31.4,23.4 32.8,27.9 29,25.2 25.2,27.9 26.6,23.4 22.8,20.6 27.5,20.5"/>
  <polygon fill="#C9A84C" points="50,10 51.8,15.4 57.4,15.5 52.9,18.8 54.6,24.2 50,21 45.4,24.2 47.1,18.8 42.6,15.5 48.2,15.4"/>
  <polygon fill="#C9A84C" points="71,16 72.5,20.5 77.2,20.6 73.4,23.4 74.8,27.9 71,25.2 67.2,27.9 68.6,23.4 64.8,20.6 69.5,20.5"/>
</svg>
